; NON-PLATED HOLES START AT T1
; THROUGH (PLATED) HOLES START AT T100
M48
INCH
T1C0.165354
T100C0.031497
T101C0.030000
T102C0.042000
T103C0.015748
T104C0.039370
T105C0.040000
T106C0.035000
T107C0.039111
%
T1
X001485Y001398
X055985Y001398
X055485Y031398
X001485Y031398
T100
X007485Y015398
X008469Y015398
T101
X021982Y025897
X049488Y024900
X019488Y008390
X021982Y024895
X046485Y008398
X008482Y025897
X035482Y025897
X008482Y024895
X049488Y025902
X035482Y024895
X005488Y007400
X046485Y007396
X005488Y008402
X032985Y007396
X019488Y007388
X043485Y013398
X044487Y013398
X032985Y008398
T102
X005478Y030894
X021488Y001390
X004988Y003402
X046484Y030900
X035989Y002398
X037982Y031895
X050984Y030900
X009978Y030894
X004482Y029895
X009488Y003402
X050485Y001398
X032485Y001398
X006482Y031895
X002988Y003402
X049988Y029900
X002988Y001402
X047488Y029900
X036978Y030894
X047488Y031900
X008492Y002402
X054646Y014398
X051988Y029900
X048485Y001398
X055645Y013402
X008982Y031895
X016988Y003390
X056985Y026398
X034985Y001398
X032485Y003398
X055985Y022902
X037982Y029895
X035982Y029895
X033482Y029895
X050485Y003398
X056985Y021898
X056646Y007398
X031482Y031895
X045488Y031900
X030485Y003398
X056985Y023898
X054646Y009398
X036985Y003398
X024482Y031895
X054985Y026398
X022482Y031895
X019982Y031895
X023478Y030894
X019982Y029895
X022492Y002390
X049489Y002398
X044989Y002398
X003992Y002402
X056646Y009398
X049988Y031900
X018978Y030894
X004482Y031895
X056985Y028398
X007488Y003402
X022482Y029895
X023488Y001390
X032478Y030894
X035982Y031895
X048485Y003398
X045488Y029900
X043985Y003398
X009488Y001402
X016988Y001390
X008982Y029895
X056646Y014398
X033482Y031895
X004988Y001402
X017982Y029895
X054646Y007398
X010982Y029895
X056646Y012398
X054985Y021898
X054985Y028398
X043985Y001398
X018988Y003390
X023488Y003390
X055985Y027402
X017982Y031895
X036985Y001398
X054985Y023898
X034985Y003398
X017992Y002390
X021488Y003390
X031482Y029895
X018988Y001390
X006482Y029895
X031489Y002398
X045985Y001398
X054646Y012398
X051988Y031900
X007488Y001402
X010982Y031895
X030485Y001398
X045985Y003398
X055645Y008402
X024482Y029895
T103
X033522Y012754
X041682Y006994
X031362Y024034
X021042Y015874
X039485Y003398
X036162Y009154
X038485Y004398
X034962Y027634
X022002Y027634
X020082Y017314
X020562Y016594
X047922Y013954
X038454Y019553
X031486Y018274
X044562Y017314
T104
X014485Y018898
X006485Y018898
X007485Y018898
X003485Y019898
X015485Y019898
X013485Y018898
X013485Y019898
X002485Y018898
X008485Y018898
X005485Y018898
X018485Y019898
X016485Y018898
X005485Y019898
X006485Y019898
X017485Y018898
X003485Y018898
X016485Y019898
X007485Y019898
X017485Y019898
X014485Y019898
X012485Y018898
X018485Y018898
X012485Y019898
X015485Y018898
X004485Y019898
X002485Y019898
X004485Y018898
X008485Y019898
T105
X002985Y014898
X002985Y012898
T106
X011988Y008402
X039482Y026895
X053488Y025900
X042485Y005398
X015482Y024895
X047985Y006398
X039482Y027895
X018488Y007390
X009482Y024895
X015482Y022895
X003982Y027895
X047985Y007398
X048485Y019398
X006982Y025895
X039482Y025895
X022982Y026895
X053488Y024900
X017485Y012898
X020482Y024895
X050985Y005398
X007485Y012898
X030982Y024895
X020988Y006390
X001488Y008402
X020482Y026895
X020482Y025895
X047988Y024900
X011485Y016898
X036482Y026895
X003982Y025895
X026485Y008398
X052485Y017398
X042988Y024900
X037485Y005398
X004488Y007402
X015485Y016898
X025982Y026895
X036482Y027895
X052985Y008398
X048985Y009898
X047988Y027900
X052485Y021398
X034485Y008398
X018485Y012898
X022982Y025895
X006988Y006402
X016485Y016898
X022982Y024895
X042988Y022900
X017482Y025895
X009482Y025895
X050488Y026900
X047985Y008398
X005982Y022895
X042485Y006398
X045485Y005398
X048485Y017398
X046485Y014398
X017485Y016898
X044988Y027900
X028982Y022895
X012485Y012898
X012482Y025895
X011985Y009898
X009482Y027895
X034485Y005398
X020988Y008390
X034485Y007398
X030982Y025895
X028982Y024895
X004488Y005402
X028985Y007398
X006988Y007402
X006988Y005402
X001982Y025895
X048485Y015398
X053488Y027900
X033982Y024895
X013485Y011398
X050985Y006398
X017482Y027895
X031985Y008398
X042988Y025900
X009988Y006402
X046485Y013398
X036482Y024895
X044988Y025900
X031985Y007398
X025982Y025895
X009988Y008402
X022982Y027895
X006988Y008402
X001488Y005402
X044988Y024900
X007985Y009898
X050488Y025900
X037485Y008398
X023988Y005390
X015488Y007390
X039482Y024895
X050985Y007398
X012485Y016898
X006982Y027895
X026485Y007398
X011485Y012898
X037485Y006398
X053488Y026900
X018488Y006390
X039485Y008398
X016485Y012898
X050985Y008398
X039485Y007398
X028985Y005398
X048485Y021398
X025982Y027895
X042485Y007398
X030982Y026895
X004488Y006402
X023988Y006390
X042485Y008398
X015488Y006390
X015482Y025895
X045485Y007398
X004488Y008402
X006982Y024895
X013485Y012898
X003982Y026895
X001982Y024895
X033982Y027895
X001488Y006402
X047988Y025900
X012482Y026895
X050488Y027900
X052485Y015398
X047985Y005398
X009485Y011398
X050488Y024900
X045485Y006398
X031985Y006398
X052985Y009898
X031985Y005398
X020988Y007390
X047988Y026900
X035485Y009898
X017482Y024895
X014485Y016898
X028985Y006398
X015485Y012898
X006982Y026895
X023988Y008390
X011988Y007402
X018488Y008390
X015488Y008390
X023988Y007390
X020482Y027895
X025985Y009898
X018488Y005390
X052985Y007398
X012482Y024895
X046988Y022900
X009988Y005402
X019482Y022895
X020988Y005390
X033982Y025895
X018485Y016898
X012482Y027895
X033982Y026895
X034485Y006398
X014485Y012898
X028985Y008398
X044988Y026900
X045485Y008398
X028982Y025895
X032982Y022895
X021985Y009898
X039485Y009898
X003982Y024895
X036482Y025895
X037485Y007398
X025982Y024895
X007485Y011898
X001488Y007402
X013485Y016898
X030982Y027895
X001982Y022895
X015488Y005390
X017482Y026895
X009988Y007402
X009482Y026895
X052485Y019398
T107
X034485Y014898
X030485Y020898
X043485Y014898
X037485Y020898
X026485Y015898
X036485Y020898
X039485Y020898
X043485Y015922
X024485Y014898
X036485Y014898
X037485Y014898
X041485Y020898
X039484Y015922
X029485Y014898
X042485Y014898
X035485Y020898
X031485Y014898
X026485Y020898
X025485Y014898
X040484Y015922
X026485Y017898
X023485Y020898
X027485Y014898
X024485Y020898
X038485Y014898
X044485Y020898
X021485Y020898
X027485Y020898
X042485Y020898
X030485Y014898
X028485Y020898
X040485Y014898
X039485Y014898
X044485Y014898
X035485Y014898
X026485Y014898
X033485Y014898
X028485Y014898
X043485Y020898
X026485Y016898
X038485Y020898
X026485Y018898
X040485Y020898
X021485Y014898
X022485Y020898
X032485Y020898
X033485Y020898
X041485Y015922
X041485Y014898
X031485Y020898
X026485Y019898
X023485Y014898
X025485Y020898
X029485Y020898
X032485Y014898
X022485Y014898
X034485Y020898
T00
M30
